PathFileType   4   (X/Y/Z)
DataRate	CameraRate	NumFrames	NumMarkers	Units	OrigDataRate	OrigDataStartFrame	OrigNumFrames
120.0	120.0	11	37	mm	120.0	93	184
Frame#	Time	midhip	hip_r	hip_l	knee_r	knee_l	ankle_r	ankle_l	midasis	asis_r	asis_l	psis_r	psis_l	epicondLat_r	epicondLat_l	epicondMed_r	epicondMed_l	malleolusLat_r	malleolusLat_l	malleolusMedv_r	malleolusMedv_l	neck	subclavicle_r	subclavicle_l	sternalnotch	xyphoidprocess	thighwand_r	thighwand_l	upperleg1_r	upperleg1_l	upperleg2_r	upperleg2_l	shankwand_r	shankwand_l	lowerleg1_r	lowerleg1_l	toe_r	toe_l
 	 	X1	Y1	Z1	X2	Y2	Z2	X3	Y3	Z3	X4	Y4	Z4	X5	Y5	Z5	X6	Y6	Z6	X7	Y7	Z7	X8	Y8	Z8	X9	Y9	Z9	X10	Y10	Z10	X11	Y11	Z11	X12	Y12	Z12	X13	Y13	Z13	X14	Y14	Z14	X15	Y15	Z15	X16	Y16	Z16	X17	Y17	Z17	X18	Y18	Z18	X19	Y19	Z19	X20	Y20	Z20	X21	Y21	Z21	X22	Y22	Z22	X23	Y23	Z23	X24	Y24	Z24	X25	Y25	Z25	X26	Y26	Z26	X27	Y27	Z27	X28	Y28	Z28	X29	Y29	Z29	X30	Y30	Z30	X31	Y31	Z31	X32	Y32	Z32	X33	Y33	Z33	X34	Y34	Z34	X35	Y35	Z35	X36	Y36	Z36	X37	Y37	Z37

	93	0.97500	-538.055	729.629	250.527	-549.708	732.518	313.279	-555.137	722.566	183.458	-448.779	404.106	284.770	-660.289	420.716	202.471	-375.803	68.790	262.773	-837.020	102.345	216.659	-480.349	794.117	240.252	-476.125	801.861	341.273	-484.573	786.373	139.231	-635.572	840.783	276.290	-637.837	835.795	220.900	-446.885	399.930	339.578	-672.819	421.740	149.441	-451.517	408.497	245.466	-654.021	400.204	250.910	-385.605	64.301	298.689	-849.384	107.673	182.195	-370.551	74.354	239.533	-832.563	105.056	246.712	-636.282	1199.857	219.919	-533.314	1145.860	280.750	-521.044	1150.735	206.046	-541.355	1146.307	239.523	-508.456	1065.871	242.120	-380.052	544.049	403.407	-481.200	494.321	154.482	-468.052	576.237	378.636	-536.738	572.260	134.150	-446.099	495.916	357.918	-573.277	493.046	144.934	-426.868	163.670	380.613	-786.590	215.258	100.708	-409.285	138.476	304.230	-808.394	184.556	175.778	-278.550	39.984	289.320	-760.729	38.826	197.450
	94	0.98333	-531.329	731.134	251.794	-543.360	733.869	314.080	-548.327	723.842	184.245	-443.951	405.028	285.643	-651.353	421.014	202.066	-375.418	68.759	263.272	-833.587	105.784	216.111	-473.806	795.494	241.260	-469.940	803.296	342.280	-477.671	787.692	140.239	-629.346	842.068	276.620	-631.172	836.967	221.176	-442.544	400.714	340.456	-663.655	422.075	148.983	-446.089	409.876	245.976	-645.067	400.428	251.117	-385.617	64.298	299.082	-845.869	111.349	181.655	-370.457	74.504	239.981	-828.715	108.485	246.071	-629.874	1201.266	220.927	-527.137	1147.229	282.063	-514.569	1152.292	207.442	-535.011	1147.766	240.815	-502.050	1067.353	243.355	-375.421	544.343	405.266	-472.648	495.641	155.047	-462.882	577.166	379.777	-528.671	573.318	134.580	-441.213	496.673	358.869	-564.756	493.747	145.309	-426.297	164.113	380.958	-781.331	217.760	99.988	-408.579	138.867	304.754	-803.530	187.544	175.179	-278.485	39.826	289.494	-759.637	39.239	197.481
	95	0.99167	-524.811	732.451	252.691	-537.064	735.214	314.858	-541.595	725.206	185.006	-439.606	405.841	286.401	-641.977	421.239	201.500	-375.026	68.737	263.758	-829.692	109.367	215.559	-467.322	796.911	242.279	-463.797	804.697	343.306	-470.848	789.125	141.252	-622.984	843.356	277.071	-624.589	838.202	221.555	-438.637	401.392	341.212	-654.081	422.353	148.373	-441.593	410.940	246.571	-635.605	400.349	250.868	-385.663	64.303	299.444	-841.887	115.154	181.110	-370.355	74.670	240.367	-824.454	112.001	245.408	-623.510	1202.695	221.850	-520.905	1148.717	283.360	-508.168	1153.810	208.812	-528.683	1149.259	242.113	-495.662	1068.873	244.709	-371.019	544.454	406.911	-463.774	497.101	155.393	-457.816	578.004	380.799	-520.391	574.485	134.871	-436.753	497.268	359.774	-555.872	494.452	145.410	-425.998	164.526	381.198	-775.621	220.292	99.170	-407.943	139.263	305.190	-798.045	190.519	174.472	-278.463	39.772	289.679	-758.384	39.632	197.566
	96	1.00000	-518.378	733.676	253.326	-530.830	736.520	315.617	-534.949	726.611	185.744	-435.718	406.548	287.058	-632.147	421.322	200.706	-374.699	68.696	264.213	-825.293	113.062	215.004	-460.904	798.321	243.304	-457.700	806.029	344.334	-464.108	790.612	142.275	-616.545	844.618	277.605	-618.071	839.464	222.019	-435.133	401.973	341.864	-644.062	422.510	147.538	-436.919	411.482	247.383	-625.689	400.038	250.311	-385.729	64.299	299.784	-837.410	119.056	180.562	-370.250	74.800	240.746	-819.776	115.511	244.723	-617.181	1204.160	222.868	-514.679	1150.195	284.600	-501.773	1155.275	210.174	-522.362	1150.728	243.379	-489.334	1070.347	246.067	-366.838	544.411	408.337	-454.617	498.674	155.548	-453.420	578.606	381.438	-512.007	575.660	135.017	-432.626	497.841	360.628	-546.680	495.203	145.283	-425.746	164.918	381.401	-769.461	222.810	98.269	-407.366	139.643	305.535	-791.854	193.405	173.778	-278.485	39.773	289.867	-756.960	39.997	197.706
	97	1.00833	-511.978	734.965	254.100	-524.670	737.756	316.355	-528.396	728.009	186.458	-432.205	407.164	287.640	-621.887	421.219	199.627	-374.490	68.624	264.623	-820.363	116.823	214.435	-454.561	799.686	244.330	-451.663	807.265	345.347	-457.459	792.106	143.312	-610.252	845.860	278.180	-611.632	840.723	222.556	-431.966	402.471	342.439	-633.600	422.504	146.416	-431.619	411.718	248.200	-615.461	399.534	249.436	-385.809	64.282	300.109	-832.425	123.013	180.008	-370.197	74.874	241.137	-814.600	119.063	244.083	-610.911	1205.552	223.976	-508.543	1151.634	285.841	-495.423	1156.796	211.486	-516.105	1152.199	244.612	-483.013	1071.845	247.321	-362.873	544.251	409.590	-445.207	500.344	155.545	-449.745	578.967	381.736	-503.515	576.807	134.994	-428.667	498.393	361.346	-537.244	495.933	144.928	-425.369	165.293	381.626	-762.887	225.283	97.297	-406.859	140.003	305.879	-785.072	196.287	173.045	-278.551	39.803	290.042	-755.356	40.335	197.893
	98	1.01667	-505.545	736.421	255.101	-518.618	738.909	317.069	-521.963	729.366	187.147	-428.934	407.714	288.182	-611.262	420.928	198.264	-374.409	68.517	264.989	-814.881	120.594	213.845	-448.319	800.974	245.346	-445.720	808.391	346.333	-450.918	793.557	144.360	-604.176	847.085	278.761	-605.301	841.959	223.160	-429.044	402.906	342.971	-622.744	422.332	145.006	-426.588	412.278	248.559	-604.796	398.575	247.953	-385.898	64.247	300.429	-826.921	126.973	179.445	-370.224	74.896	241.528	-808.812	122.706	243.449	-604.711	1206.776	225.059	-502.453	1153.093	287.059	-489.194	1158.341	212.762	-509.933	1153.672	245.827	-476.665	1073.391	248.543	-359.152	543.986	410.763	-435.561	502.109	155.423	-445.990	579.311	382.117	-494.885	577.940	134.879	-424.772	498.841	361.860	-527.448	496.608	144.274	-424.781	165.648	381.915	-755.932	227.701	96.261	-406.369	140.318	306.204	-777.721	199.199	172.192	-278.663	39.839	290.207	-753.547	40.649	198.115
	99	1.02500	-499.487	737.505	255.783	-512.709	739.985	317.764	-515.677	730.660	187.817	-425.801	408.225	288.719	-600.343	420.457	196.643	-374.436	68.379	265.321	-808.838	124.339	213.214	-442.195	802.162	246.350	-439.890	809.404	347.286	-444.500	794.919	145.414	-598.043	848.248	279.338	-599.102	843.157	223.807	-426.302	403.298	343.496	-611.557	422.001	143.331	-422.108	413.121	248.629	-593.628	397.055	245.759	-385.994	64.193	300.749	-820.893	130.905	178.855	-370.290	74.888	241.899	-802.320	126.283	242.726	-598.577	1207.960	226.113	-496.283	1154.495	288.241	-483.036	1159.768	213.981	-503.764	1155.058	247.027	-470.334	1074.845	249.745	-355.707	543.625	411.940	-425.701	503.959	155.219	-442.063	579.738	382.617	-486.122	578.996	134.687	-421.042	499.249	362.276	-517.226	497.211	143.295	-424.001	165.979	382.288	-748.611	230.085	95.150	-405.914	140.520	306.464	-769.875	202.001	171.245	-278.812	39.874	290.382	-751.509	40.960	198.352
	100	1.03333	-493.631	738.419	256.222	-506.947	740.989	318.456	-509.548	731.871	188.485	-422.791	408.703	289.272	-589.186	419.823	194.789	-374.521	68.223	265.632	-802.237	128.035	212.507	-436.194	803.239	247.342	-434.176	810.315	348.209	-438.213	796.163	146.474	-591.917	849.362	279.899	-593.049	844.310	224.458	-423.714	403.660	344.033	-600.102	421.530	141.421	-418.637	413.882	248.798	-582.184	395.229	242.966	-386.092	64.123	301.066	-814.350	134.797	178.206	-370.357	74.875	242.256	-795.281	129.710	241.873	-592.503	1209.079	227.178	-490.069	1155.754	289.407	-476.942	1160.967	215.188	-497.614	1156.268	248.236	-464.094	1076.094	250.981	-352.499	543.203	413.139	-415.663	505.904	154.947	-438.176	580.238	383.187	-477.210	579.998	134.330	-417.754	499.596	362.748	-506.714	497.708	142.014	-423.129	166.278	382.727	-740.941	232.475	93.955	-405.484	140.686	306.799	-761.627	204.630	170.216	-278.988	39.914	290.583	-749.228	41.320	198.570
	101	1.04167	-487.849	739.516	257.188	-501.324	741.920	319.160	-503.569	732.973	189.171	-419.950	409.141	289.847	-577.811	419.066	192.744	-374.613	68.068	265.931	-795.092	131.666	211.680	-430.322	804.204	248.325	-428.581	811.142	349.112	-432.063	797.267	147.537	-586.205	850.479	280.384	-587.139	845.407	225.078	-421.289	403.992	344.589	-588.416	420.966	139.319	-415.343	414.770	248.980	-570.440	393.141	239.939	-386.186	64.044	301.373	-807.305	138.645	177.459	-370.404	74.883	242.612	-787.776	133.058	240.913	-586.440	1210.077	228.296	-483.916	1156.888	290.526	-470.910	1162.017	216.380	-491.526	1157.346	249.413	-457.952	1077.196	252.205	-349.441	542.778	414.346	-405.494	507.968	154.592	-434.370	580.812	383.894	-468.184	580.986	133.828	-414.561	499.969	363.275	-496.072	497.856	140.599	-422.295	166.544	383.195	-732.946	234.907	92.676	-405.014	140.891	307.318	-753.039	207.211	169.128	-279.179	39.969	290.815	-746.705	41.802	198.735
	102	1.05000	-482.278	740.461	258.060	-495.851	742.794	319.887	-497.747	733.963	189.885	-417.338	409.529	290.430	-566.226	418.227	190.560	-374.677	67.926	266.217	-787.433	135.244	210.700	-424.584	805.061	249.304	-423.116	811.901	350.014	-426.053	798.220	148.594	-580.582	851.543	280.807	-581.370	846.429	225.646	-419.041	404.291	345.154	-576.532	420.348	137.086	-411.924	415.520	249.457	-558.285	390.871	236.930	-386.277	63.965	301.657	-799.775	142.463	176.575	-370.414	74.943	242.964	-779.858	136.293	239.825	-580.416	1211.034	229.435	-477.855	1157.896	291.589	-464.881	1163.050	217.381	-485.482	1158.361	250.451	-451.866	1078.227	253.210	-346.446	542.394	415.525	-395.222	510.155	154.133	-430.716	581.433	384.645	-459.148	581.919	133.230	-411.364	500.376	363.955	-485.317	497.784	139.144	-421.601	166.780	383.653	-724.617	237.389	91.311	-404.623	141.039	307.836	-744.105	209.845	167.906	-279.379	40.048	291.069	-743.965	42.465	198.821
	103	1.05833	-477.093	741.049	258.928	-490.534	743.604	320.639	-492.075	734.832	190.629	-414.998	409.863	290.996	-554.453	417.350	188.299	-374.697	67.805	266.487	-779.306	138.797	209.541	-418.991	805.812	250.283	-417.798	812.603	350.929	-420.184	799.021	149.638	-575.040	852.529	281.174	-575.707	847.338	226.156	-416.973	404.557	345.704	-564.495	419.716	134.784	-409.230	415.782	250.422	-545.985	388.931	233.915	-386.360	63.893	301.912	-791.786	146.276	175.521	-370.415	75.038	243.290	-771.563	139.459	238.556	-574.464	1211.899	230.520	-471.808	1158.777	292.588	-458.940	1163.945	218.322	-479.493	1159.245	251.442	-445.851	1079.121	254.143	-343.433	542.068	416.617	-384.867	512.446	153.557	-427.141	581.992	385.389	-450.135	582.879	132.584	-408.428	500.710	364.848	-474.476	498.191	137.623	-421.086	166.990	384.075	-715.923	239.935	89.844	-404.412	141.088	308.192	-734.802	212.570	166.468	-279.580	40.157	291.334	-741.017	43.373	198.818
